/* XPM */
static char * quanta_mini_xpm[] = {
"16 11 52 1",
" 	c None",
".	c #1D4175",
"+	c #1F457A",
"@	c #21497E",
"#	c #234C83",
"$	c #1D4074",
"%	c #1F4479",
"&	c #244F87",
"*	c #26538B",
"=	c #1C3F73",
"-	c #1E4378",
";	c #27568F",
">	c #295A93",
",	c #1C3E72",
"'	c #1E4277",
")	c #295992",
"!	c #2A5D97",
"~	c #257CAD",
"{	c #1D4176",
"]	c #2A5C96",
"^	c #2C609A",
"/	c #2482B1",
"(	c #20487E",
"_	c #2B5F99",
":	c #2D639E",
"<	c #2679AB",
"[	c #2480B0",
"}	c #2288B4",
"|	c #208FB8",
"1	c #1D96BD",
"2	c #20477D",
"3	c #224B81",
"4	c #2D629D",
"5	c #2B69A1",
"6	c #208DB7",
"7	c #214A80",
"8	c #234E85",
"9	c #295993",
"0	c #2C619C",
"a	c #2C67A0",
"b	c #1E93BB",
"c	c #255188",
"d	c #26558D",
"e	c #2C609B",
"f	c #2C659F",
"g	c #2A6CA4",
"h	c #285890",
"i	c #2A5B95",
"j	c #2B5F9A",
"k	c #2B6BA3",
"l	c #2970A6",
"m	c #2778AA",
"   .+@#         ",
"  $%  &*        ",
" =-    ;>       ",
",'     )!    ~  ",
"{+     ]^    /  ",
"%(     _:  <[}|1",
"23     45    6  ",
"78  9 0a     b  ",
" cd  efg        ",
"  hij:k         ",
"      lm        "};
