/* XPM */
static char * earth5_xpm[] = {
"30 30 77 1",
" 	c None",
".	c #0084B5",
"+	c #007BB5",
"@	c #00ADCE",
"#	c #009CC5",
"$	c #0063A5",
"%	c #006BAD",
"&	c #949421",
"*	c #08B5D6",
"=	c #109C10",
"-	c #009C00",
";	c #949494",
">	c #7B8C08",
",	c #A5A521",
"'	c #C5C563",
")	c #00529C",
"!	c #197BAD",
"~	c #6B8408",
"{	c #5A9400",
"]	c #08DEEF",
"^	c #19B5D6",
"/	c #00A5CE",
"(	c #A5A531",
"_	c #848410",
":	c #10A5CE",
"<	c #10CEE6",
"[	c #7B8C19",
"}	c #083A7B",
"|	c #004284",
"1	c #B5B531",
"2	c #8C8C19",
"3	c #0073AD",
"4	c #088CBD",
"5	c #108CBD",
"6	c #108CB5",
"7	c #ADAD31",
"8	c #BDBD4A",
"9	c #106BA5",
"0	c #1084B5",
"a	c #105A94",
"b	c #19528C",
"c	c #949419",
"d	c #196B9C",
"e	c #1073A5",
"f	c #003173",
"g	c #00528C",
"h	c #194A84",
"i	c #BDBD52",
"j	c #10ADCE",
"k	c #109CC5",
"l	c #738C10",
"m	c #10427B",
"n	c #9C9C31",
"o	c #848421",
"p	c #003A6B",
"q	c #103A73",
"r	c #EDDD09",
"s	c #FCEC0A",
"t	c #00296B",
"u	c #639410",
"v	c #DBC608",
"w	c #BABABA",
"x	c #FFE693",
"y	c #002142",
"z	c #CCB808",
"A	c #00C5DE",
"B	c #FFEA82",
"C	c #B29E07",
"D	c #EDD747",
"E	c #FFDB4C",
"F	c #A5A53A",
"G	c #FFEA4C",
"H	c #DBC641",
"I	c #CCB83D",
"J	c #C1AD3A",
"K	c #848429",
"L	c #1094BD",
"           .+@#$%..           ",
"        .&*=-;>,'')@!;        ",
"       ~&&{;=;;#~''].^;       ",
"      ./(>>{;==_~{)#:<[==     ",
"    }|$,12~{=={-~3.456..;=    ",
"    |)#78_{~-={_{.$$90ab.'b   ",
"   ))$,'7c>>>~>;=~..ad0de(b   ",
"  f}|$1''c~{-;>=.3/gba:eh)~;  ",
"  }||.(i7>{{{{=.|}}abbjkhel[  ",
" }|))__7&~;{2;$|}|fbaee!ma~ln ",
" f|g)${,_;;;;#}}g|fmdeabm9.lo[",
" f}g)$.7-=~4;)|}}pfhd9hqm9;l_[",
"}|}))$.irssss)}ffptqaaqhhd6ul[",
"|||g$+vvr.;wsx))y}mmaahhbd9;ll",
"|||g)zv%._A#ssx|3.qheBhqqhbul;",
"ggg)Czv%)$.>ssx#%)ahhBbhhh9b;b",
"|ggCCz$%3$3@ssx;{=^~DEEa0ddhha",
"|g|CCz%%%%@+ssx{_F=DDGGE!dd9ab",
" |CCzz$3%4#sssx;;HHDDGGGBBaebm",
" )CCz%%$$$%sss-;;;;IDDDDhqh0q ",
" #CCz.$))))sss-;;;=lJHJKhqheh ",
"  CCz+$)))sss~~-[l[llHudhmbe  ",
"  CCz+)))sss|~~~ulu[&H.dhmdh  ",
"   Czz$)rssg)|g~~u=loaebmb6h  ",
"    Czvvr.)%)gd~u=lK.Laahed   ",
"    fzv3$$%$))aF=;=.eadad:    ",
"    Czvvr%$$$saK=;;ahhbdd     ",
"  CCCzvvrssss9.&==qhhmb       ",
"      vvrrssb9===.L!h         ",
"           hhbbede!           "};
