/* XPM */
static const char*txt_xpm[]={
"16 16 14 1",
"i c #808080",
"f c #a0a0a0",
"b c #c3c3c3",
"k c #000080",
"# c #000000",
"j c #8080ff",
". c None",
"c c #303030",
"h c #ffdca8",
"g c #ffffc0",
"l c #0000ff",
"e c #585858",
"a c #dcdcdc",
"d c #ffffff",
"....#########...",
"....#aaaaabcb#..",
"....#adddddeda#.",
"....#a#d#ddeadb#",
"....#adddddeeec#",
"....#a#d#dddabf#",
"....#addddddgda#",
"....#add#d#d#dd#",
"....#addddgdgdg#",
"....#a#d#ddd#hd#",
"....#addgdgdgdg#",
"....#adddddhdhd#",
"....#ieiejejklk#",
"....#eiejejklkl#",
"....#iejejklklk#",
"....############"};
