<?xml version="1.0" encoding="UTF-8" standalone="no"?>
<!-- Created with Inkscape (http://www.inkscape.org/) -->
<svg
   xmlns:dc="http://purl.org/dc/elements/1.1/"
   xmlns:cc="http://creativecommons.org/ns#"
   xmlns:rdf="http://www.w3.org/1999/02/22-rdf-syntax-ns#"
   xmlns:svg="http://www.w3.org/2000/svg"
   xmlns="http://www.w3.org/2000/svg"
   xmlns:xlink="http://www.w3.org/1999/xlink"
   xmlns:sodipodi="http://sodipodi.sourceforge.net/DTD/sodipodi-0.dtd"
   xmlns:inkscape="http://www.inkscape.org/namespaces/inkscape"
   width="744.09448819"
   height="1052.3622047"
   id="svg2"
   sodipodi:version="0.32"
   inkscape:version="0.46"
   sodipodi:docname="drawing.svg"
   inkscape:output_extension="org.inkscape.output.svg.inkscape">
  <defs
     id="defs4">
    <linearGradient
       id="linearGradient3368">
      <stop
         style="stop-color:#8d8d8d;stop-opacity:1;"
         offset="0"
         id="stop3370" />
      <stop
         style="stop-color:#000000;stop-opacity:0.65384614;"
         offset="1"
         id="stop3372" />
    </linearGradient>
    <linearGradient
       id="linearGradient3378">
      <stop
         id="stop3380"
         offset="0"
         style="stop-color:#001394;stop-opacity:1;" />
      <stop
         id="stop3382"
         offset="1"
         style="stop-color:#869cff;stop-opacity:1;" />
    </linearGradient>
    <linearGradient
       id="linearGradient3236">
      <stop
         style="stop-color:#008aff;stop-opacity:1;"
         offset="0"
         id="stop3238" />
      <stop
         style="stop-color:#ffffff;stop-opacity:1;"
         offset="1"
         id="stop3240" />
    </linearGradient>
    <linearGradient
       id="linearGradient3202">
      <stop
         style="stop-color:#8c8c8c;stop-opacity:1;"
         offset="0"
         id="stop3204" />
      <stop
         style="stop-color:#ffffff;stop-opacity:1;"
         offset="1"
         id="stop3206" />
    </linearGradient>
    <linearGradient
       id="linearGradient3402">
      <stop
         id="stop3404"
         offset="0"
         style="stop-color:#45c345;stop-opacity:1;" />
      <stop
         id="stop3406"
         offset="1"
         style="stop-color:#005900;stop-opacity:1;" />
    </linearGradient>
    <linearGradient
       id="linearGradient3349">
      <stop
         style="stop-color:#948800;stop-opacity:1;"
         offset="0"
         id="stop3351" />
      <stop
         style="stop-color:#bdc500;stop-opacity:1;"
         offset="1"
         id="stop3353" />
    </linearGradient>
    <linearGradient
       inkscape:collect="always"
       id="linearGradient3256">
      <stop
         style="stop-color:#60caff;stop-opacity:1;"
         offset="0"
         id="stop3258" />
      <stop
         style="stop-color:#60caff;stop-opacity:0;"
         offset="1"
         id="stop3260" />
    </linearGradient>
    <linearGradient
       id="linearGradient3247">
      <stop
         id="stop3249"
         offset="0"
         style="stop-color:#00dbc7;stop-opacity:1;" />
      <stop
         id="stop3251"
         offset="1"
         style="stop-color:#00599f;stop-opacity:1;" />
    </linearGradient>
    <linearGradient
       id="linearGradient3157">
      <stop
         style="stop-color:#00db00;stop-opacity:1;"
         offset="0"
         id="stop3159" />
      <stop
         style="stop-color:#005900;stop-opacity:1;"
         offset="1"
         id="stop3161" />
    </linearGradient>
    <inkscape:perspective
       sodipodi:type="inkscape:persp3d"
       inkscape:vp_x="0 : 526.18109 : 1"
       inkscape:vp_y="0 : 1000 : 0"
       inkscape:vp_z="744.09448 : 526.18109 : 1"
       inkscape:persp3d-origin="372.04724 : 350.78739 : 1"
       id="perspective10" />
    <linearGradient
       inkscape:collect="always"
       xlink:href="#linearGradient3157"
       id="linearGradient3231"
       gradientUnits="userSpaceOnUse"
       gradientTransform="matrix(1.3392163,0,0,0.939627,-28.037257,7.391383)"
       x1="156.07364"
       y1="172.62393"
       x2="74.746216"
       y2="177.6747" />
    <linearGradient
       inkscape:collect="always"
       xlink:href="#linearGradient3157"
       id="linearGradient3233"
       gradientUnits="userSpaceOnUse"
       gradientTransform="matrix(-1.3392163,0,0,0.939627,383.8635,8.2969254)"
       x1="156.07364"
       y1="172.62393"
       x2="74.746216"
       y2="177.6747" />
    <radialGradient
       inkscape:collect="always"
       xlink:href="#linearGradient3247"
       id="radialGradient3245"
       cx="109.90235"
       cy="207.49052"
       fx="109.90235"
       fy="207.49052"
       r="17.265625"
       gradientTransform="matrix(1.1847147,0,0,1.2034771,-22.442451,-49.004698)"
       gradientUnits="userSpaceOnUse" />
    <linearGradient
       inkscape:collect="always"
       xlink:href="#linearGradient3256"
       id="linearGradient3345"
       gradientUnits="userSpaceOnUse"
       gradientTransform="matrix(0.5939131,0,0,0.4675657,55.466524,105.10877)"
       x1="63.92857"
       y1="140.36218"
       x2="96.071434"
       y2="335.79077" />
    <linearGradient
       inkscape:collect="always"
       xlink:href="#linearGradient3402"
       id="linearGradient3400"
       x1="120.67857"
       y1="383.07648"
       x2="72.178574"
       y2="321.64792"
       gradientUnits="userSpaceOnUse"
       gradientTransform="matrix(1.2052769,0,0,1.4962059,-10.743959,28.423788)" />
    <linearGradient
       inkscape:collect="always"
       xlink:href="#linearGradient3349"
       id="linearGradient3410"
       gradientUnits="userSpaceOnUse"
       gradientTransform="matrix(1.2033631,0,0,1.4962442,-9.8747602,-72.106594)"
       x1="120.67857"
       y1="383.07648"
       x2="72.178574"
       y2="321.64792" />
    <radialGradient
       inkscape:collect="always"
       xlink:href="#linearGradient3247"
       id="radialGradient3412"
       gradientUnits="userSpaceOnUse"
       gradientTransform="matrix(1.8095079,0,0,1.8095083,-71.27851,-159.70871)"
       cx="109.90235"
       cy="207.49052"
       fx="109.90235"
       fy="207.49052"
       r="17.265625" />
    <linearGradient
       inkscape:collect="always"
       xlink:href="#linearGradient3202"
       id="linearGradient3216"
       x1="9.2478571"
       y1="409.31842"
       x2="148.90002"
       y2="704.70953"
       gradientUnits="userSpaceOnUse" />
    <linearGradient
       inkscape:collect="always"
       xlink:href="#linearGradient3349"
       id="linearGradient3248"
       gradientUnits="userSpaceOnUse"
       gradientTransform="matrix(0.9842705,0,0,1.0894594,12.167294,-10.832806)"
       x1="69.964287"
       y1="327.32648"
       x2="98.60714"
       y2="350.21933" />
    <linearGradient
       inkscape:collect="always"
       xlink:href="#linearGradient3349"
       id="linearGradient3250"
       gradientUnits="userSpaceOnUse"
       gradientTransform="matrix(0.6143024,0,0,0.5896971,84.021595,160.07323)"
       x1="69.964287"
       y1="327.32648"
       x2="98.60714"
       y2="350.21933" />
    <linearGradient
       inkscape:collect="always"
       xlink:href="#linearGradient3349"
       id="linearGradient3252"
       gradientUnits="userSpaceOnUse"
       gradientTransform="matrix(0.6143024,0,0,0.5896971,83.573201,198.06529)"
       x1="69.964287"
       y1="327.32648"
       x2="98.60714"
       y2="350.21933" />
    <linearGradient
       inkscape:collect="always"
       xlink:href="#linearGradient3349"
       id="linearGradient3254"
       gradientUnits="userSpaceOnUse"
       gradientTransform="matrix(0.6143024,0,0,0.5896971,45.449246,198.44933)"
       x1="69.964287"
       y1="327.32648"
       x2="98.60714"
       y2="350.21933" />
    <linearGradient
       inkscape:collect="always"
       xlink:href="#linearGradient3256"
       id="linearGradient3263"
       gradientUnits="userSpaceOnUse"
       gradientTransform="matrix(1.4647163,0,0,0.8741241,-5.8203064,9.5021248)"
       x1="63.92857"
       y1="140.36218"
       x2="96.071434"
       y2="335.79077" />
    <linearGradient
       inkscape:collect="always"
       xlink:href="#linearGradient3256"
       id="linearGradient3276"
       gradientUnits="userSpaceOnUse"
       gradientTransform="matrix(1.4647163,0,0,0.8741241,-5.8203064,9.5021248)"
       x1="63.92857"
       y1="140.36218"
       x2="96.071434"
       y2="335.79077" />
    <linearGradient
       inkscape:collect="always"
       xlink:href="#linearGradient3349"
       id="linearGradient2457"
       gradientUnits="userSpaceOnUse"
       gradientTransform="matrix(0.6143024,0,0,0.5896971,48.662678,205.51888)"
       x1="69.964287"
       y1="327.32648"
       x2="98.60714"
       y2="350.21933" />
    <linearGradient
       inkscape:collect="always"
       xlink:href="#linearGradient3349"
       id="linearGradient2460"
       gradientUnits="userSpaceOnUse"
       gradientTransform="matrix(0.6143024,0,0,0.5896971,86.786633,205.13484)"
       x1="69.964287"
       y1="327.32648"
       x2="98.60714"
       y2="350.21933" />
    <linearGradient
       inkscape:collect="always"
       xlink:href="#linearGradient3349"
       id="linearGradient2464"
       gradientUnits="userSpaceOnUse"
       gradientTransform="matrix(0.6143024,0,0,0.5896971,87.235027,167.14278)"
       x1="69.964287"
       y1="327.32648"
       x2="98.60714"
       y2="350.21933" />
    <linearGradient
       inkscape:collect="always"
       xlink:href="#linearGradient3349"
       id="linearGradient2467"
       gradientUnits="userSpaceOnUse"
       gradientTransform="matrix(0.9842705,0,0,1.0894594,15.380726,-3.7632555)"
       x1="69.964287"
       y1="327.32648"
       x2="98.60714"
       y2="350.21933" />
    <linearGradient
       inkscape:collect="always"
       xlink:href="#linearGradient3349"
       id="linearGradient2479"
       gradientUnits="userSpaceOnUse"
       gradientTransform="matrix(0.9842705,0,0,1.0894594,15.380726,-3.7632555)"
       x1="69.964287"
       y1="327.32648"
       x2="98.60714"
       y2="350.21933" />
    <linearGradient
       inkscape:collect="always"
       xlink:href="#linearGradient3349"
       id="linearGradient2481"
       gradientUnits="userSpaceOnUse"
       gradientTransform="matrix(0.6143024,0,0,0.5896971,87.235027,167.14278)"
       x1="69.964287"
       y1="327.32648"
       x2="98.60714"
       y2="350.21933" />
    <linearGradient
       inkscape:collect="always"
       xlink:href="#linearGradient3349"
       id="linearGradient2483"
       gradientUnits="userSpaceOnUse"
       gradientTransform="matrix(0.6143024,0,0,0.5896971,86.786633,205.13484)"
       x1="69.964287"
       y1="327.32648"
       x2="98.60714"
       y2="350.21933" />
    <linearGradient
       inkscape:collect="always"
       xlink:href="#linearGradient3349"
       id="linearGradient2485"
       gradientUnits="userSpaceOnUse"
       gradientTransform="matrix(0.6143024,0,0,0.5896971,48.662678,205.51888)"
       x1="69.964287"
       y1="327.32648"
       x2="98.60714"
       y2="350.21933" />
    <linearGradient
       inkscape:collect="always"
       xlink:href="#linearGradient3349"
       id="linearGradient3290"
       gradientUnits="userSpaceOnUse"
       gradientTransform="matrix(0.9842705,0,0,1.0894594,15.380726,-3.7632555)"
       x1="69.964287"
       y1="327.32648"
       x2="98.60714"
       y2="350.21933" />
    <linearGradient
       inkscape:collect="always"
       xlink:href="#linearGradient3349"
       id="linearGradient3292"
       gradientUnits="userSpaceOnUse"
       gradientTransform="matrix(0.6143024,0,0,0.5896971,87.235027,167.14278)"
       x1="69.964287"
       y1="327.32648"
       x2="98.60714"
       y2="350.21933" />
    <linearGradient
       inkscape:collect="always"
       xlink:href="#linearGradient3349"
       id="linearGradient3294"
       gradientUnits="userSpaceOnUse"
       gradientTransform="matrix(0.6143024,0,0,0.5896971,86.786633,205.13484)"
       x1="69.964287"
       y1="327.32648"
       x2="98.60714"
       y2="350.21933" />
    <linearGradient
       inkscape:collect="always"
       xlink:href="#linearGradient3349"
       id="linearGradient3296"
       gradientUnits="userSpaceOnUse"
       gradientTransform="matrix(0.6143024,0,0,0.5896971,48.662678,205.51888)"
       x1="69.964287"
       y1="327.32648"
       x2="98.60714"
       y2="350.21933" />
    <linearGradient
       inkscape:collect="always"
       xlink:href="#linearGradient3349"
       id="linearGradient3370"
       gradientUnits="userSpaceOnUse"
       gradientTransform="matrix(0.6143024,0,0,0.5896971,51.233424,206.16157)"
       x1="69.964287"
       y1="327.32648"
       x2="98.60714"
       y2="350.21933" />
    <linearGradient
       inkscape:collect="always"
       xlink:href="#linearGradient3349"
       id="linearGradient3373"
       gradientUnits="userSpaceOnUse"
       gradientTransform="matrix(0.6143024,0,0,0.5896971,89.357379,205.77753)"
       x1="69.964287"
       y1="327.32648"
       x2="98.60714"
       y2="350.21933" />
    <linearGradient
       inkscape:collect="always"
       xlink:href="#linearGradient3349"
       id="linearGradient3376"
       gradientUnits="userSpaceOnUse"
       gradientTransform="matrix(0.6143024,0,0,0.5896971,89.805773,167.78547)"
       x1="69.964287"
       y1="327.32648"
       x2="98.60714"
       y2="350.21933" />
    <linearGradient
       inkscape:collect="always"
       xlink:href="#linearGradient3349"
       id="linearGradient3379"
       gradientUnits="userSpaceOnUse"
       gradientTransform="matrix(0.9842705,0,0,1.0894594,17.951472,-3.1205691)"
       x1="69.964287"
       y1="327.32648"
       x2="98.60714"
       y2="350.21933" />
    <linearGradient
       inkscape:collect="always"
       xlink:href="#linearGradient3378"
       id="linearGradient3372"
       x1="346.12091"
       y1="614.12201"
       x2="411.47049"
       y2="614.12201"
       gradientUnits="userSpaceOnUse" />
    <linearGradient
       inkscape:collect="always"
       xlink:href="#linearGradient3378"
       id="linearGradient3401"
       gradientUnits="userSpaceOnUse"
       x1="346.12091"
       y1="614.12201"
       x2="411.47049"
       y2="614.12201" />
    <linearGradient
       inkscape:collect="always"
       xlink:href="#linearGradient3236"
       id="linearGradient3407"
       gradientUnits="userSpaceOnUse"
       x1="346.12091"
       y1="614.12201"
       x2="411.47049"
       y2="614.12201"
       gradientTransform="matrix(0.7045656,0,0,0.7217764,18.945969,132.46301)" />
    <linearGradient
       inkscape:collect="always"
       xlink:href="#linearGradient3236"
       id="linearGradient3416"
       gradientUnits="userSpaceOnUse"
       gradientTransform="matrix(0.7045656,0,0,0.7217764,18.945969,132.46301)"
       x1="346.12091"
       y1="614.12201"
       x2="411.47049"
       y2="614.12201" />
    <linearGradient
       inkscape:collect="always"
       xlink:href="#linearGradient3236"
       id="linearGradient3422"
       gradientUnits="userSpaceOnUse"
       gradientTransform="matrix(0.7045656,0,0,0.7217764,18.945969,132.46301)"
       x1="346.12091"
       y1="614.12201"
       x2="411.47049"
       y2="614.12201" />
    <linearGradient
       inkscape:collect="always"
       xlink:href="#linearGradient3236"
       id="linearGradient3431"
       x1="263.04504"
       y1="559.69891"
       x2="308.44223"
       y2="559.69891"
       gradientUnits="userSpaceOnUse" />
    <linearGradient
       inkscape:collect="always"
       xlink:href="#linearGradient3236"
       id="linearGradient3439"
       x1="263.26199"
       y1="576.1076"
       x2="308.4422"
       y2="576.1076"
       gradientUnits="userSpaceOnUse" />
    <linearGradient
       inkscape:collect="always"
       xlink:href="#linearGradient3236"
       id="linearGradient3447"
       x1="262.63583"
       y1="591.62396"
       x2="308.68387"
       y2="591.62396"
       gradientUnits="userSpaceOnUse" />
    <linearGradient
       inkscape:collect="always"
       xlink:href="#linearGradient3236"
       id="linearGradient3455"
       gradientUnits="userSpaceOnUse"
       x1="263.04504"
       y1="559.69891"
       x2="308.44223"
       y2="559.69891" />
    <linearGradient
       inkscape:collect="always"
       xlink:href="#linearGradient3236"
       id="linearGradient3457"
       gradientUnits="userSpaceOnUse"
       x1="263.26199"
       y1="576.1076"
       x2="308.4422"
       y2="576.1076" />
    <linearGradient
       inkscape:collect="always"
       xlink:href="#linearGradient3236"
       id="linearGradient3459"
       gradientUnits="userSpaceOnUse"
       x1="262.63583"
       y1="591.62396"
       x2="308.68387"
       y2="591.62396" />
    <linearGradient
       inkscape:collect="always"
       xlink:href="#linearGradient3236"
       id="linearGradient3462"
       gradientUnits="userSpaceOnUse"
       x1="262.63583"
       y1="591.62396"
       x2="308.68387"
       y2="591.62396"
       gradientTransform="matrix(0.9912594,0,0,1.3312577,2.4968516,-197.51404)" />
    <linearGradient
       inkscape:collect="always"
       xlink:href="#linearGradient3236"
       id="linearGradient3465"
       gradientUnits="userSpaceOnUse"
       x1="263.26199"
       y1="576.1076"
       x2="308.4422"
       y2="576.1076" />
    <linearGradient
       inkscape:collect="always"
       xlink:href="#linearGradient3236"
       id="linearGradient3468"
       gradientUnits="userSpaceOnUse"
       x1="263.04504"
       y1="559.69891"
       x2="308.44223"
       y2="559.69891"
       gradientTransform="matrix(0.9903758,0,0,1.3643585,2.7500594,-202.24353)" />
    <linearGradient
       inkscape:collect="always"
       xlink:href="#linearGradient3349"
       id="linearGradient2587"
       gradientUnits="userSpaceOnUse"
       gradientTransform="matrix(1.2033631,0,0,1.4962442,-9.8747602,-72.106594)"
       x1="120.67857"
       y1="383.07648"
       x2="72.178574"
       y2="321.64792" />
    <linearGradient
       inkscape:collect="always"
       xlink:href="#linearGradient3157"
       id="linearGradient3463"
       gradientUnits="userSpaceOnUse"
       gradientTransform="matrix(1.3392163,0,0,0.939627,-28.037257,7.391383)"
       x1="156.07364"
       y1="172.62393"
       x2="74.746216"
       y2="177.6747" />
    <linearGradient
       inkscape:collect="always"
       xlink:href="#linearGradient3157"
       id="linearGradient3466"
       gradientUnits="userSpaceOnUse"
       gradientTransform="matrix(-1.3392163,0,0,0.939627,383.8635,8.2969254)"
       x1="156.07364"
       y1="172.62393"
       x2="74.746216"
       y2="177.6747" />
  </defs>
  <sodipodi:namedview
     id="base"
     pagecolor="#ffffff"
     bordercolor="#666666"
     borderopacity="1.0"
     gridtolerance="10000"
     guidetolerance="10"
     objecttolerance="10"
     inkscape:pageopacity="0.0"
     inkscape:pageshadow="2"
     inkscape:zoom="0.5761681"
     inkscape:cx="304.55474"
     inkscape:cy="622.3824"
     inkscape:document-units="px"
     inkscape:current-layer="layer1"
     showgrid="false"
     showguides="true"
     inkscape:guide-bbox="true"
     inkscape:window-width="1280"
     inkscape:window-height="962"
     inkscape:window-x="1270"
     inkscape:window-y="0" />
  <metadata
     id="metadata7">
    <rdf:RDF>
      <cc:Work
         rdf:about="">
        <dc:format>image/svg+xml</dc:format>
        <dc:type
           rdf:resource="http://purl.org/dc/dcmitype/StillImage" />
      </cc:Work>
    </rdf:RDF>
  </metadata>
  <g
     inkscape:label="Layer 1"
     inkscape:groupmode="layer"
     id="layer1">
    <g
       id="g3227"
       transform="matrix(0.3340297,0,0,0.6533399,67.716955,-4.1408436)"
       style="stroke:#004a00;stroke-opacity:1"
       inkscape:export-filename="/media/usb_large/projects/kdevelop4-extra-plugins/xml/language/completion/pics/element.png"
       inkscape:export-xdpi="14.06"
       inkscape:export-ydpi="14.06">
      <path
         sodipodi:nodetypes="ccccccc"
         id="path2383"
         d="M 82.893392,175.28556 L 152.21509,121.48085 L 170.14982,133.90143 L 117.78636,173.02781 L 169.96579,206.13926 L 151.35466,217.70609 L 82.893392,175.28556 z"
         style="fill:url(#linearGradient3231);fill-opacity:1;fill-rule:evenodd;stroke:#004a00;stroke-width:1.12176812px;stroke-linecap:butt;stroke-linejoin:miter;stroke-opacity:1" />
      <path
         sodipodi:nodetypes="ccccccc"
         id="path3205"
         d="M 272.93285,176.1911 L 203.61115,122.38639 L 185.67642,134.80697 L 238.03988,173.93335 L 185.86045,207.0448 L 204.47158,218.61163 L 272.93285,176.1911 z"
         style="fill:url(#linearGradient3233);fill-opacity:1;fill-rule:evenodd;stroke:#004a00;stroke-width:1.12176812px;stroke-linecap:butt;stroke-linejoin:miter;stroke-opacity:1" />
    </g>
    <path
       style="font-size:47.38858795px;font-style:normal;font-weight:bold;fill:url(#radialGradient3412);fill-opacity:1;stroke:#004a6d;stroke-width:1.51542604px;stroke-linecap:butt;stroke-linejoin:miter;stroke-opacity:1;font-family:Bitstream Vera Sans"
       d="M 120.94637,215.85149 C 120.94634,218.70438 121.55895,220.95417 122.78416,222.60094 C 124.03287,224.24772 125.7175,225.0711 127.83806,225.07109 C 129.93499,225.0711 131.60783,224.24772 132.85662,222.60094 C 134.10532,220.93099 134.7297,218.68117 134.72975,215.85149 C 134.7297,213.04503 134.09354,210.83 132.82127,209.20642 C 131.57248,207.55967 129.88785,206.73627 127.76738,206.73624 C 125.69394,206.73627 124.03287,207.55967 122.78416,209.20642 C 121.55895,210.83 120.94634,213.04503 120.94637,215.85149 M 135.43658,226.32357 C 134.7297,227.97035 133.58698,229.25763 132.00841,230.18536 C 130.45333,231.08994 128.62732,231.54222 126.53041,231.54222 C 122.47784,231.54222 119.17926,230.10419 116.63466,227.22813 C 114.11358,224.3289 112.85305,220.55987 112.85307,215.92107 C 112.85305,211.2823 114.12535,207.51328 116.67001,204.614 C 119.21458,201.71479 122.5014,200.26517 126.53041,200.26514 C 128.62732,200.26517 130.45333,200.72905 132.00841,201.65677 C 133.58698,202.58457 134.7297,203.87183 135.43658,205.51856 L 135.43658,200.96096 L 142.82305,200.96096 L 142.82305,225.07109 C 145.74459,224.63042 148.04182,223.25037 149.71472,220.93097 C 151.38752,218.58839 152.22395,215.59637 152.22401,211.9549 C 152.22395,209.63553 151.8823,207.46689 151.19909,205.44898 C 150.51575,203.40795 149.47906,201.54083 148.08899,199.84764 C 145.85062,197.01802 143.04682,194.83778 139.67762,193.30694 C 136.33185,191.77618 132.70343,191.01078 128.79229,191.01073 C 126.05915,191.01078 123.44384,191.3703 120.94637,192.08925 C 118.44885,192.78512 116.13985,193.81724 114.01936,195.18566 C 110.53226,197.4587 107.81094,200.40434 105.85537,204.02255 C 103.92333,207.61765 102.95731,211.51424 102.95733,215.71232 C 102.95731,219.16824 103.58169,222.41539 104.83045,225.45379 C 106.10275,228.46902 107.92874,231.13633 110.30845,233.45571 C 112.66456,235.72873 115.36233,237.45667 118.40176,238.63957 C 121.46469,239.84566 124.72794,240.4487 128.19148,240.4487 C 131.16017,240.4487 134.12889,239.90363 137.09766,238.81352 C 140.06633,237.72341 142.59917,236.25059 144.69616,234.39508 L 148.47776,240.03122 C 145.53254,242.28102 142.31644,243.99736 138.82941,245.18027 C 135.36585,246.38636 131.84344,246.98939 128.26217,246.9894 C 123.90328,246.98939 119.79185,246.22399 115.92782,244.69321 C 112.06375,243.18558 108.6238,240.98216 105.60797,238.08293 C 102.59212,235.18367 100.29489,231.83214 98.716292,228.02834 C 97.137679,224.20133 96.348375,220.09599 96.348381,215.71232 C 96.348375,211.49104 97.149459,207.46689 98.751634,203.63986 C 100.35379,199.81288 102.63924,196.44977 105.60797,193.55048 C 108.57668,190.67447 112.0284,188.44784 115.96317,186.87062 C 119.92142,185.29346 124.02109,184.50487 128.26217,184.50483 C 133.53985,184.50487 138.33458,185.50222 142.64633,187.49685 C 146.958,189.46839 150.56288,192.32123 153.46097,196.05543 C 155.22801,198.32847 156.55923,200.79863 157.45462,203.46589 C 158.37345,206.11004 158.83288,208.89333 158.83296,211.81573 C 158.83288,218.10132 156.91265,222.98364 153.07222,226.46274 C 149.23166,229.94183 143.81256,231.68138 136.81491,231.68138 L 135.43658,231.68138 L 135.43658,226.32357"
       id="text3235"
       inkscape:export-filename="/media/usb_large/projects/kdevelop4-extra-plugins/xml/language/completion/pics/attribute.png"
       inkscape:export-xdpi="14.0625"
       inkscape:export-ydpi="14.0625" />
    <g
       id="g3471"
       inkscape:export-filename="/media/usb_large/projects/kdevelop4-extra-plugins/xml/language/completion/pics/enumeration.png"
       inkscape:export-xdpi="17.488392"
       inkscape:export-ydpi="17.488392"
       transform="translate(-163.14683,-142.31958)">
      <rect
         y="544.4342"
         x="255.25626"
         height="61.755241"
         width="61.755241"
         id="rect3390"
         style="fill:none;fill-opacity:1;stroke:none;stroke-width:2.24476027;stroke-miterlimit:4;stroke-dasharray:none;stroke-opacity:1" />
      <rect
         y="555.83978"
         x="264.52103"
         height="11.093182"
         width="42.445221"
         id="rect3364"
         style="fill:url(#linearGradient3468);fill-opacity:1;stroke:#0e1153;stroke-width:2.95196128;stroke-miterlimit:4;stroke-dasharray:none;stroke-opacity:1" />
      <rect
         y="584.68866"
         x="264.10373"
         height="10.802502"
         width="43.112206"
         id="rect3376"
         style="fill:url(#linearGradient3462);fill-opacity:1;stroke:#0e1553;stroke-width:2.93582726;stroke-miterlimit:4;stroke-dasharray:none;stroke-opacity:1" />
    </g>
    <path
       style="font-size:40px;font-style:normal;font-weight:normal;fill:#8d8d8d;fill-opacity:1;stroke:#000000;stroke-width:3;stroke-linecap:butt;stroke-linejoin:miter;stroke-miterlimit:4;stroke-dasharray:none;stroke-opacity:1;font-family:Bitstream Vera Sans"
       d="M 112.96606,322.94746 C 110.83323,324.84592 109.26292,326.74436 108.25512,328.64277 C 107.27073,330.51779 106.77855,332.48654 106.77856,334.54902 C 106.77855,337.97091 108.02073,340.81856 110.50512,343.09199 C 112.98948,345.36543 116.10666,346.50215 119.85668,346.50215 C 122.08322,346.50215 124.16915,346.13887 126.1145,345.4123 C 128.05978,344.66231 129.8879,343.53731 131.59887,342.0373 L 112.96606,322.94746 M 117.92309,319.00996 L 135.78246,337.29121 C 137.16523,335.20529 138.24336,332.97873 139.01684,330.61152 C 139.79023,328.22092 140.24726,325.68967 140.38793,323.01777 L 146.927,323.01777 C 146.64569,326.11155 145.89569,329.17014 144.677,332.19355 C 143.4582,335.21701 141.75898,338.20529 139.57934,341.1584 L 149.38793,351.17793 L 140.52856,351.17793 L 135.50121,346.00996 C 133.06368,348.0959 130.50899,349.65449 127.83715,350.68574 C 125.16525,351.69355 122.29416,352.19746 119.22387,352.19746 C 113.57541,352.19746 108.95823,350.59199 105.37231,347.38105 C 101.78636,344.14669 99.993402,340.00997 99.993402,334.9709 C 99.993402,331.97092 100.77855,329.15842 102.34887,326.5334 C 103.91917,323.88499 106.27464,321.40061 109.41528,319.08027 C 108.29026,317.60374 107.4348,316.1389 106.84887,314.68574 C 106.26292,313.20922 105.96995,311.76781 105.96996,310.36152 C 105.96995,306.56469 107.27073,303.51782 109.87231,301.2209 C 112.47385,298.90064 115.93088,297.74048 120.2434,297.74043 C 122.18869,297.74048 124.12228,297.95142 126.04418,298.37324 C 127.98946,298.79517 129.95821,299.42798 131.95043,300.27168 L 131.95043,306.67012 C 129.91134,305.5686 127.96603,304.73657 126.1145,304.17402 C 124.2629,303.58813 122.54025,303.29516 120.94653,303.29512 C 118.48557,303.29516 116.48166,303.95141 114.93481,305.26387 C 113.41135,306.55297 112.64963,308.22875 112.64965,310.29121 C 112.64963,311.48656 112.98948,312.69359 113.66918,313.9123 C 114.37229,315.10765 115.79026,316.80687 117.92309,319.00996"
       id="text2463"
       inkscape:export-filename="/media/usb_large/projects/kdevelop4-extra-plugins/xml/language/completion/pics/entity.png"
       inkscape:export-xdpi="16.875015"
       inkscape:export-ydpi="16.875015" />
  </g>
</svg>
